<svg width="112" height="101" viewBox="0 0 112 101" fill="none" xmlns="http://www.w3.org/2000/svg">
<path d="M92.0505 32.696C90.8597 32.2821 89.6589 31.8985 88.4491 31.5458C88.6523 30.7043 88.8394 29.873 89.0055 29.0563C91.7319 15.6451 89.9495 4.84074 83.8616 1.28343C78.0246 -2.12685 68.4787 1.42914 58.8379 9.93135C57.8877 10.7708 56.9586 11.6344 56.0516 12.5214C55.4443 11.9316 54.8263 11.3532 54.198 10.7866C44.0939 1.69576 33.9662 -2.13571 27.8848 1.4318C22.0531 4.8527 20.3262 15.0096 22.7808 27.7197C23.025 28.9785 23.3007 30.2308 23.6077 31.4754C22.1741 31.8882 20.7908 32.3276 19.467 32.7952C7.62072 36.9806 0.055542 43.5394 0.055542 50.3427C0.055542 57.3692 8.1771 64.4169 20.5155 68.6904C21.5158 69.0354 22.5244 69.3551 23.5404 69.6492C23.2104 70.9897 22.9175 72.3393 22.6619 73.6964C20.3219 86.186 22.1492 96.1028 27.9653 99.502C33.9723 103.012 44.0545 99.4046 53.8715 90.7084C54.6675 90.0014 55.446 89.2743 56.2063 88.528C57.1886 89.4884 58.1972 90.4209 59.2308 91.3244C68.7405 99.6163 78.1321 102.965 83.9425 99.556C89.9438 96.0355 91.8945 85.3821 89.3621 72.4209C89.1626 71.4054 88.9389 70.3951 88.6912 69.3906C89.3993 69.178 90.0942 68.9592 90.7716 68.7316C103.599 64.4253 111.944 57.463 111.944 50.3427C111.944 43.5146 104.135 36.9115 92.0505 32.696ZM89.2686 64.1343C88.6567 64.3394 88.029 64.5374 87.3892 64.73C85.9731 60.1873 84.0622 55.3571 81.7235 50.3661C83.9552 45.4943 85.7926 40.7257 87.1689 36.2126C88.3136 36.5483 89.4242 36.9022 90.495 37.2756C100.849 40.8878 107.165 46.2277 107.165 50.3427C107.165 54.7255 100.344 60.4154 89.2686 64.1343ZM84.6733 73.3616C85.793 79.0926 85.9526 84.2745 85.2109 88.3256C84.5448 91.9657 83.2047 94.3923 81.5474 95.3645C78.0216 97.4328 70.4809 94.7444 62.3484 87.6528C61.387 86.8128 60.4488 85.9459 59.535 85.0531C62.688 81.5591 65.8388 77.4973 68.914 72.986C74.3231 72.4997 79.4333 71.7043 84.0675 70.6187C84.2907 71.5281 84.4927 72.4426 84.6733 73.3616ZM38.2009 95.0071C34.756 96.2396 32.0121 96.2751 30.3534 95.306C26.8241 93.2435 25.3569 85.2807 27.3582 74.5999C27.5961 73.3378 27.8685 72.0826 28.1751 70.8358C32.7581 71.8633 37.8312 72.602 43.253 73.0476C46.3491 77.4619 49.5908 81.5192 52.8579 85.0721C52.1636 85.7529 51.4529 86.4162 50.7263 87.0616C46.385 90.9068 42.0349 93.635 38.2009 95.0071ZM22.0618 64.1073C16.6059 62.2175 12.1002 59.7617 9.0119 57.0817C6.23653 54.6737 4.83573 52.2825 4.83573 50.3427C4.83573 46.214 10.9096 40.948 21.0404 37.369C22.2699 36.935 23.5566 36.5253 24.8918 36.1409C26.2922 40.7558 28.1287 45.5811 30.3451 50.4605C28.0999 55.412 26.2371 60.3144 24.8232 64.9838C23.8958 64.7146 22.975 64.4224 22.0618 64.1073ZM27.4718 26.7892C25.3691 15.8998 26.7655 7.68544 30.28 5.62378C34.023 3.42791 42.3002 6.55872 51.0244 14.4086C51.5933 14.9216 52.153 15.445 52.7032 15.9786C49.4523 19.516 46.2403 23.5432 43.1717 27.9314C37.9094 28.4257 32.8722 29.2193 28.2411 30.2827C27.9557 29.1251 27.6992 27.9599 27.4718 26.7892ZM75.7357 38.866C74.6418 36.9513 73.5074 35.0608 72.3331 33.1956C75.9031 33.6531 79.3236 34.2603 82.5356 35.0026C81.5714 38.1348 80.3695 41.4091 78.9547 44.7662C77.9206 42.7779 76.8473 40.8108 75.7357 38.866ZM56.0537 19.4403C58.2583 21.8607 60.4664 24.5628 62.6381 27.4947C58.2325 27.2839 53.8195 27.283 49.4138 27.4921C51.5878 24.5871 53.8147 21.8886 56.0537 19.4403ZM36.2455 38.8992C35.1477 40.8284 34.0945 42.7832 33.0868 44.7622C31.6952 41.417 30.5042 38.1277 29.5317 34.9512C32.724 34.2276 36.1283 33.6359 39.6756 33.1868C38.4882 35.0633 37.3446 36.9683 36.2455 38.8992ZM39.7774 67.8431C36.1126 67.4286 32.6572 66.8674 29.4657 66.1632C30.4535 62.9301 31.6707 59.5708 33.0925 56.1539C34.1042 58.1343 35.1618 60.0904 36.2643 62.0204C37.398 64.0046 38.572 65.948 39.7774 67.8431ZM56.1857 81.5861C53.92 79.1094 51.6604 76.3693 49.4536 73.4222C51.5961 73.5073 53.7801 73.5507 56 73.5507C58.2806 73.5507 60.535 73.4989 62.754 73.3988C60.5752 76.3989 58.3754 79.1431 56.1857 81.5861ZM78.9997 55.9794C80.4953 59.4339 81.7558 62.7755 82.7567 65.9533C79.5128 66.7036 76.0102 67.3077 72.3196 67.7563C73.5022 65.8565 74.6474 63.9331 75.7545 61.9872C76.8801 60.0092 77.9621 58.0061 78.9997 55.9794ZM71.6142 59.5672C69.9193 62.5507 68.1292 65.4776 66.2466 68.3432C62.8364 68.5879 59.4187 68.7095 56 68.7077C52.5179 68.7077 49.1311 68.5978 45.8697 68.3835C43.9379 65.5245 42.1136 62.5925 40.4007 59.5938C38.6958 56.611 37.1037 53.5636 35.627 50.4583C37.0999 47.3522 38.6876 44.3034 40.3867 41.3183C42.0851 38.3324 43.8944 35.4134 45.8115 32.5667C49.1389 32.3116 52.5511 32.1787 55.9995 32.1787C59.4637 32.1787 62.8807 32.3129 66.2072 32.5698C68.105 35.4122 69.9032 38.3216 71.5984 41.2926C73.3032 44.2711 74.9118 47.3051 76.4219 50.3896C74.9274 53.5057 73.3238 56.5668 71.6142 59.5672ZM81.4744 5.47939C85.2209 7.66905 86.6781 16.499 84.324 28.0784C84.1737 28.8172 84.005 29.5697 83.8214 30.3328C79.1789 29.2468 74.1382 28.4394 68.8606 27.9376C65.7863 23.5011 62.6006 19.4677 59.4025 15.976C60.2407 15.1573 61.0988 14.3598 61.976 13.5843C70.2365 6.30007 77.9569 3.42393 81.4744 5.47939ZM56 40.2181C61.5179 40.2181 65.9913 44.7511 65.9913 50.3427C65.9913 55.9342 61.5179 60.4672 56 60.4672C50.482 60.4672 46.0087 55.9342 46.0087 50.3427C46.0087 44.7511 50.482 40.2181 56 40.2181Z" fill="#00D8FF"/>
</svg>
