<svg width="145" height="145" viewBox="0 0 145 145" fill="none" xmlns="http://www.w3.org/2000/svg">
<path d="M111.016 0H33.9844C15.2153 0 0 15.2153 0 33.9844V111.016C0 129.785 15.2153 145 33.9844 145H111.016C129.785 145 145 129.785 145 111.016V33.9844C145 15.2153 129.785 0 111.016 0Z" fill="#242938"/>
<path d="M72.5 125.712C71.1261 125.712 69.7762 125.334 68.5863 124.614L56.1321 116.889C54.2735 115.799 55.1791 115.414 55.7939 115.189C57.7706 114.549 59.6634 113.653 61.428 112.521C61.5757 112.45 61.7385 112.419 61.9008 112.431C62.0631 112.444 62.2196 112.5 62.3555 112.594L71.9253 118.55C72.1035 118.649 72.302 118.701 72.5036 118.701C72.7052 118.701 72.9038 118.649 73.082 118.55L110.401 95.9806C110.575 95.871 110.72 95.7157 110.82 95.53C110.92 95.3442 110.972 95.1344 110.972 94.9211V49.7738C110.972 49.5571 110.919 49.3441 110.817 49.1552C110.716 48.9663 110.57 48.8079 110.393 48.6953L73.0747 26.1445C72.8987 26.0406 72.7001 25.9861 72.4982 25.9861C72.2962 25.9861 72.0976 26.0406 71.9217 26.1445L34.6247 48.7029C34.4468 48.8131 34.2991 48.9697 34.1959 49.1573C34.0926 49.3449 34.0374 49.5573 34.0355 49.7738V94.9021C34.036 95.1149 34.0905 95.3238 34.1934 95.5073C34.2963 95.6908 34.4439 95.8423 34.6211 95.9464L44.8565 102.136C50.4034 105.04 53.8006 101.617 53.8006 98.1797V53.6231C53.8006 53.3199 53.9156 53.0291 54.1202 52.8147C54.3249 52.6002 54.6024 52.4798 54.8918 52.4798H59.6203C59.9097 52.4798 60.1872 52.6002 60.3919 52.8147C60.5965 53.0291 60.7115 53.3199 60.7115 53.6231V98.1835C60.7115 105.939 56.6814 110.379 49.6614 110.379C46.6329 110.435 43.6518 109.586 41.0664 107.933L31.2566 102.037C30.0657 101.31 29.0776 100.269 28.3908 99.0168C27.704 97.7648 27.3427 96.3461 27.3429 94.9021V49.7738C27.3393 48.3276 27.6991 46.9059 28.3861 45.6515C29.0731 44.3971 30.0631 43.3543 31.2566 42.6279L68.579 20.0504C69.7812 19.3612 71.1296 19 72.5 19C73.8704 19 75.2188 19.3612 76.421 20.0504L113.74 42.6279C114.93 43.3531 115.919 44.3929 116.606 45.6435C117.294 46.894 117.656 48.3116 117.657 49.7548V94.9021C117.655 96.3461 117.292 97.7643 116.605 99.016C115.918 100.268 114.93 101.309 113.74 102.037L76.421 124.614C75.2288 125.335 73.8764 125.713 72.5 125.712Z" fill="#83CD29"/>
<path d="M65.8715 79.3744C65.8715 79.0885 65.9791 78.8143 66.1708 78.6121C66.3624 78.4099 66.6223 78.2963 66.8933 78.2963H71.4134C71.6549 78.2972 71.8884 78.3882 72.0723 78.5533C72.2563 78.7184 72.3788 78.947 72.4183 79.1984C73.0995 84.0535 75.1433 86.5009 84.3844 86.5009C91.7453 86.5009 94.8825 84.7435 94.8825 80.6215C94.8825 78.246 93.9935 76.4815 82.5519 75.2991C72.9871 74.3001 67.0739 72.0648 67.0739 64.0004C67.0739 56.5613 73.0178 52.123 82.9811 52.123C94.1774 52.123 99.7194 56.2235 100.421 65.021C100.432 65.1679 100.414 65.3155 100.368 65.4548C100.323 65.5941 100.251 65.7221 100.157 65.8308C100.063 65.9396 99.9483 66.0269 99.8209 66.0872C99.6936 66.1476 99.5558 66.1798 99.4162 66.1818H94.8655C94.6372 66.1784 94.4165 66.0945 94.2387 65.9434C94.0609 65.7923 93.9362 65.5827 93.8845 65.348C92.7979 60.2413 90.1376 58.6098 82.9845 58.6098C74.9457 58.6098 74.0124 61.5638 74.0124 63.7776C74.0124 66.4585 75.116 67.242 85.9683 68.7549C96.7082 70.2535 101.811 72.3738 101.811 80.3376C101.811 88.3732 95.4616 92.9732 84.3878 92.9732C69.0767 92.9948 65.8715 85.588 65.8715 79.3744Z" fill="#83CD29"/>
</svg>
