<svg width="145" height="145" viewBox="0 0 145 145" fill="none" xmlns="http://www.w3.org/2000/svg">
<path d="M111.016 0H33.9844C15.2153 0 0 15.2153 0 33.9844V111.016C0 129.785 15.2153 145 33.9844 145H111.016C129.785 145 145 129.785 145 111.016V33.9844C145 15.2153 129.785 0 111.016 0Z" fill="#242938"/>
<path d="M108.05 54.696C106.86 54.2821 105.659 53.8985 104.449 53.5458C104.652 52.7043 104.839 51.873 105.005 51.0563C107.732 37.6451 105.95 26.8407 99.8616 23.2834C94.0246 19.8732 84.4787 23.4291 74.8379 31.9314C73.8877 32.7708 72.9586 33.6344 72.0516 34.5214C71.4443 33.9316 70.8263 33.3532 70.198 32.7866C60.0939 23.6958 49.9662 19.8643 43.8848 23.4318C38.0531 26.8527 36.3262 37.0096 38.7808 49.7197C39.025 50.9785 39.3007 52.2308 39.6077 53.4754C38.1741 53.8882 36.7908 54.3276 35.467 54.7952C23.6207 58.9806 16.0555 65.5394 16.0555 72.3427C16.0555 79.3692 24.1771 86.4169 36.5155 90.6904C37.5158 91.0354 38.5244 91.3551 39.5404 91.6492C39.2104 92.9897 38.9175 94.3393 38.6619 95.6964C36.3219 108.186 38.1492 118.103 43.9653 121.502C49.9723 125.012 60.0545 121.405 69.8715 112.708C70.6675 112.001 71.446 111.274 72.2063 110.528C73.1886 111.488 74.1972 112.421 75.2308 113.324C84.7405 121.616 94.1321 124.965 99.9425 121.556C105.944 118.035 107.894 107.382 105.362 94.4209C105.163 93.4054 104.939 92.3951 104.691 91.3906C105.399 91.178 106.094 90.9592 106.772 90.7316C119.599 86.4253 127.944 79.463 127.944 72.3427C127.944 65.5146 120.135 58.9115 108.05 54.696ZM105.269 86.1343C104.657 86.3394 104.029 86.5374 103.389 86.73C101.973 82.1873 100.062 77.3571 97.7235 72.3661C99.9552 67.4943 101.793 62.7257 103.169 58.2126C104.314 58.5483 105.424 58.9022 106.495 59.2756C116.849 62.8878 123.165 68.2277 123.165 72.3427C123.165 76.7255 116.344 82.4154 105.269 86.1343ZM100.673 95.3616C101.793 101.093 101.953 106.274 101.211 110.326C100.545 113.966 99.2047 116.392 97.5474 117.364C94.0216 119.433 86.4809 116.744 78.3484 109.653C77.387 108.813 76.4488 107.946 75.535 107.053C78.688 103.559 81.8388 99.4973 84.914 94.986C90.3231 94.4997 95.4333 93.7043 100.067 92.6187C100.291 93.5281 100.493 94.4426 100.673 95.3616ZM54.2009 117.007C50.756 118.24 48.0121 118.275 46.3534 117.306C42.8241 115.243 41.3569 107.281 43.3582 96.5999C43.5961 95.3378 43.8685 94.0826 44.1751 92.8358C48.7581 93.8633 53.8312 94.602 59.253 95.0476C62.3491 99.4619 65.5909 103.519 68.8579 107.072C68.1636 107.753 67.4529 108.416 66.7263 109.062C62.385 112.907 58.0349 115.635 54.2009 117.007ZM38.0618 86.1073C32.6059 84.2175 28.1002 81.7617 25.0119 79.0817C22.2365 76.6737 20.8357 74.2825 20.8357 72.3427C20.8357 68.214 26.9096 62.948 37.0404 59.369C38.2699 58.935 39.5566 58.5253 40.8918 58.1409C42.2922 62.7558 44.1287 67.5811 46.3451 72.4605C44.0999 77.412 42.2371 82.3144 40.8232 86.9838C39.8958 86.7146 38.975 86.4224 38.0618 86.1073ZM43.4718 48.7892C41.3691 37.8998 42.7655 29.6854 46.28 27.6238C50.023 25.4279 58.3002 28.5587 67.0244 36.4086C67.5933 36.9216 68.153 37.445 68.7032 37.9786C65.4523 41.516 62.2403 45.5432 59.1717 49.9314C53.9094 50.4257 48.8722 51.2193 44.2411 52.2827C43.9557 51.1251 43.6992 49.9599 43.4718 48.7892ZM91.7357 60.866C90.6418 58.9513 89.5074 57.0608 88.3331 55.1956C91.9031 55.6531 95.3236 56.2603 98.5356 57.0026C97.5714 60.1348 96.3695 63.4091 94.9547 66.7662C93.9206 64.7779 92.8473 62.8108 91.7357 60.866ZM72.0537 41.4403C74.2583 43.8607 76.4664 46.5628 78.6381 49.4947C74.2325 49.2839 69.8195 49.283 65.4138 49.4921C67.5878 46.5871 69.8147 43.8886 72.0537 41.4403ZM52.2455 60.8992C51.1477 62.8284 50.0945 64.7832 49.0868 66.7622C47.6952 63.417 46.5042 60.1277 45.5317 56.9512C48.724 56.2276 52.1283 55.6359 55.6756 55.1868C54.4882 57.0633 53.3446 58.9683 52.2455 60.8992ZM55.7774 89.8431C52.1126 89.4286 48.6572 88.8674 45.4657 88.1632C46.4535 84.9301 47.6707 81.5708 49.0925 78.1539C50.1042 80.1343 51.1618 82.0904 52.2643 84.0204C53.398 86.0046 54.572 87.948 55.7774 89.8431ZM72.1857 103.586C69.92 101.109 67.6604 98.3693 65.4536 95.4222C67.5961 95.5073 69.7801 95.5507 72 95.5507C74.2806 95.5507 76.535 95.4989 78.754 95.3988C76.5752 98.3989 74.3754 101.143 72.1857 103.586ZM94.9997 77.9794C96.4953 81.4339 97.7558 84.7755 98.7567 87.9533C95.5128 88.7036 92.0102 89.3077 88.3196 89.7563C89.5022 87.8565 90.6474 85.9331 91.7545 83.9872C92.8801 82.0092 93.9621 80.0061 94.9997 77.9794ZM87.6142 81.5672C85.9193 84.5507 84.1292 87.4776 82.2466 90.3432C78.8364 90.5879 75.4187 90.7095 72 90.7077C68.5179 90.7077 65.1311 90.5978 61.8697 90.3835C59.9379 87.5245 58.1136 84.5925 56.4007 81.5938C54.6958 78.611 53.1037 75.5636 51.627 72.4583C53.0999 69.3522 54.6876 66.3034 56.3867 63.3183C58.0851 60.3324 59.8944 57.4134 61.8115 54.5667C65.1389 54.3116 68.5511 54.1787 71.9995 54.1787C75.4637 54.1787 78.8807 54.3129 82.2072 54.5698C84.105 57.4122 85.9032 60.3216 87.5984 63.2926C89.3032 66.2711 90.9118 69.3051 92.4219 72.3896C90.9274 75.5057 89.3238 78.5668 87.6142 81.5672ZM97.4744 27.4794C101.221 29.6691 102.678 38.499 100.324 50.0784C100.174 50.8172 100.005 51.5697 99.8214 52.3328C95.1789 51.2468 90.1382 50.4394 84.8606 49.9376C81.7863 45.5011 78.6006 41.4677 75.4025 37.976C76.2407 37.1573 77.0988 36.3598 77.976 35.5843C86.2365 28.3001 93.9569 25.4239 97.4744 27.4794ZM72 62.2181C77.5179 62.2181 81.9913 66.7511 81.9913 72.3427C81.9913 77.9342 77.5179 82.4672 72 82.4672C66.482 82.4672 62.0087 77.9342 62.0087 72.3427C62.0087 66.7511 66.482 62.2181 72 62.2181Z" fill="#00D8FF"/>
</svg>
