<svg width="91" height="107" viewBox="0 0 91 107" fill="none" xmlns="http://www.w3.org/2000/svg">
<path d="M45.5 106.712C44.1261 106.712 42.7762 106.334 41.5862 105.614L29.1321 97.8888C27.2735 96.7988 28.1791 96.4139 28.7939 96.189C30.7706 95.5491 32.6634 94.6529 34.428 93.5212C34.5757 93.4496 34.7385 93.4187 34.9008 93.4313C35.0631 93.444 35.2196 93.4999 35.3555 93.5936L44.9253 99.5505C45.1035 99.6493 45.302 99.7009 45.5036 99.7009C45.7052 99.7009 45.9038 99.6493 46.082 99.5505L83.4007 76.9806C83.5753 76.871 83.7198 76.7157 83.8199 76.53C83.92 76.3442 83.9723 76.1344 83.9718 75.9211V30.7738C83.9719 30.5571 83.9187 30.3441 83.8174 30.1552C83.7161 29.9663 83.5701 29.8079 83.3934 29.6953L46.0747 7.14449C45.8987 7.04064 45.7001 6.98609 45.4982 6.98609C45.2962 6.98609 45.0976 7.04064 44.9217 7.14449L7.62474 29.7029C7.44684 29.8131 7.29911 29.9697 7.19588 30.1573C7.09265 30.3449 7.03741 30.5573 7.0355 30.7738V75.9021C7.03601 76.1149 7.09051 76.3238 7.19341 76.5073C7.29631 76.6908 7.44392 76.8423 7.62111 76.9463L17.8565 83.1357C23.4034 86.0398 26.8006 82.6174 26.8006 79.1797V34.6231C26.8006 34.3199 26.9156 34.0291 27.1202 33.8147C27.3249 33.6002 27.6024 33.4798 27.8918 33.4798H32.6203C32.9097 33.4798 33.1872 33.6002 33.3919 33.8147C33.5965 34.0291 33.7115 34.3199 33.7115 34.6231V79.1835C33.7115 86.9393 29.6814 91.3793 22.6614 91.3793C19.6329 91.4346 16.6518 90.586 14.0664 88.9325L4.2566 83.0366C3.0657 82.31 2.07755 81.2687 1.3908 80.0168C0.704039 78.7648 0.342703 77.3461 0.34286 75.9021V30.7738C0.339321 29.3276 0.699128 27.9059 1.38613 26.6515C2.07312 25.3971 3.06311 24.3543 4.2566 23.6279L41.579 1.05041C42.7812 0.361219 44.1296 0 45.5 0C46.8704 0 48.2188 0.361219 49.421 1.05041L86.7397 23.6279C87.9305 24.3531 88.9189 25.3929 89.6063 26.6435C90.2937 27.894 90.656 29.3116 90.6571 30.7548V75.9021C90.6551 77.3461 90.2924 78.7643 89.6052 80.016C88.918 81.2676 87.9301 82.309 86.7397 83.0366L49.421 105.614C48.2288 106.335 46.8764 106.713 45.5 106.712Z" fill="#83CD29"/>
<path d="M38.8715 60.3744C38.8715 60.0885 38.9791 59.8143 39.1708 59.6121C39.3624 59.4099 39.6223 59.2963 39.8933 59.2963H44.4134C44.6549 59.2972 44.8884 59.3882 45.0723 59.5533C45.2563 59.7184 45.3788 59.947 45.4183 60.1984C46.0995 65.0535 48.1433 67.5009 57.3844 67.5009C64.7453 67.5009 67.8825 65.7435 67.8825 61.6215C67.8825 59.246 66.9935 57.4815 55.5519 56.2991C45.9871 55.3001 40.0739 53.0648 40.0739 45.0004C40.0739 37.5613 46.0178 33.123 55.9811 33.123C67.1774 33.123 72.7194 37.2235 73.4211 46.021C73.4318 46.1679 73.4138 46.3155 73.3684 46.4548C73.3229 46.5941 73.2509 46.7221 73.1567 46.8308C73.0626 46.9396 72.9483 47.0269 72.8209 47.0872C72.6936 47.1476 72.5558 47.1798 72.4162 47.1818H67.8655C67.6372 47.1784 67.4165 47.0945 67.2387 46.9434C67.0609 46.7923 66.9362 46.5827 66.8845 46.348C65.7979 41.2413 63.1376 39.6098 55.9845 39.6098C47.9457 39.6098 47.0124 42.5638 47.0124 44.7776C47.0124 47.4585 48.116 48.242 58.9683 49.7549C69.7082 51.2535 74.8108 53.3738 74.8108 61.3376C74.8108 69.3732 68.4616 73.9732 57.3878 73.9732C42.0767 73.9948 38.8715 66.588 38.8715 60.3744Z" fill="#83CD29"/>
</svg>
