<svg width="145" height="145" viewBox="0 0 145 145" fill="none" xmlns="http://www.w3.org/2000/svg">
<g clip-path="url(#clip0_698_70)">
<path d="M0 0H145V145H0V0Z" fill="#F7DF1E"/>
<path d="M38.1259 121.172L49.2218 114.456C51.3628 118.252 53.3102 121.463 57.9813 121.463C62.4587 121.463 65.2823 119.712 65.2823 112.899V66.5684H78.9083V113.092C78.9083 127.205 70.6354 133.629 58.5653 133.629C47.6648 133.629 41.3375 127.984 38.1254 121.171M86.3095 119.712L97.4043 113.288C100.325 118.058 104.121 121.561 110.837 121.561C116.483 121.561 120.083 118.738 120.083 114.845C120.083 110.173 116.385 108.518 110.155 105.794L106.749 104.332C96.9183 100.148 90.3973 94.8922 90.3973 83.7963C90.3973 73.576 98.1837 65.7891 110.351 65.7891C119.013 65.7891 125.243 68.8069 129.719 76.6907L119.11 83.5045C116.773 79.3194 114.244 77.6649 110.35 77.6649C106.359 77.6649 103.828 80.1956 103.828 83.5045C103.828 87.5923 106.359 89.2479 112.199 91.7786L115.605 93.2382C127.188 98.2028 133.709 103.264 133.709 114.651C133.709 126.916 124.074 133.631 111.128 133.631C98.4754 133.631 90.2993 127.596 86.309 119.712" fill="black"/>
</g>
<defs>
<clipPath id="clip0_698_70">
<rect width="145" height="145" fill="white"/>
</clipPath>
</defs>
</svg>
