<svg width="127" height="159" viewBox="0 0 127 159" fill="none" xmlns="http://www.w3.org/2000/svg">
<path d="M126.779 14.0645L115.249 144.082L63.4226 158.545L11.7385 144.102L0.220734 14.0645H126.779Z" fill="#E44D26"/>
<path d="M63.5 147.49L105.379 135.803L115.231 24.6973H63.5V147.49Z" fill="#F16529"/>
<path d="M41.0865 56.5931H63.5V40.6445H23.7713L24.1503 44.9232L28.0447 88.8732H63.5V72.9247H42.5346L41.0865 56.5931ZM44.6574 96.8478H28.7526L30.9721 121.889L63.4271 130.958L63.5 130.938V114.345L63.4306 114.363L45.7855 109.567L44.6574 96.8478Z" fill="#EBEBEB"/>
<path d="M63.4454 88.8732H82.9553L81.1158 109.557L63.4449 114.358V130.951L95.9257 121.889L96.1638 119.195L99.8875 77.2073L100.274 72.9247H63.4454V88.8732ZM63.4454 56.5541V56.5931H101.716L102.033 53.0086L102.755 44.9232L103.134 40.6445H63.4454V56.5541Z" fill="white"/>
</svg>
