<svg width="145" height="145" viewBox="0 0 145 145" fill="none" xmlns="http://www.w3.org/2000/svg">
<g clip-path="url(#clip0_698_100)">
<path d="M111.016 0H33.9844C15.2153 0 0 15.2153 0 33.9844V111.016C0 129.785 15.2153 145 33.9844 145H111.016C129.785 145 145 129.785 145 111.016V33.9844C145 15.2153 129.785 0 111.016 0Z" fill="#242938"/>
<path d="M129.141 103.617C127.492 104.241 125.671 104.24 124.023 103.613C122.375 102.987 121.014 101.778 120.197 100.216C115.063 92.5312 109.395 85.1934 103.946 77.6981L101.584 74.5489C95.0962 83.241 88.6086 91.5864 82.6879 100.247C81.9168 101.741 80.6291 102.902 79.0648 103.517C77.5004 104.131 75.7662 104.155 74.1851 103.586L98.5292 70.9273L75.8854 41.4176C77.5154 40.829 79.2986 40.8208 80.9338 41.3946C82.5691 41.9683 83.9563 43.0888 84.8613 44.5668C90.1203 52.2518 95.947 59.5896 101.741 67.3686C107.568 59.6524 113.331 52.2829 118.716 44.6614C119.492 43.1924 120.78 42.0598 122.337 41.4791C123.893 40.8984 125.608 40.9102 127.157 41.5121L118.37 53.1648C114.433 58.361 110.56 63.589 106.466 68.6594C106.136 68.9547 105.872 69.3163 105.691 69.7206C105.51 70.125 105.416 70.5629 105.416 71.0058C105.416 71.4487 105.51 71.8866 105.691 72.2909C105.872 72.6952 106.136 73.0568 106.466 73.3521C113.993 83.3356 121.456 93.3502 129.141 103.617ZM15.8594 70.5178C16.5209 67.3686 16.9299 63.9356 17.8435 60.7235C23.2918 41.3553 45.4943 33.2925 60.7686 45.2918C69.7127 52.3152 71.9489 62.267 71.5082 73.4784H21.119C20.3 93.5082 34.7553 105.602 53.2416 99.4289C56.2404 98.3561 58.9248 96.5534 61.0526 94.1836C63.1805 91.8139 64.6847 88.9515 65.4295 85.855C66.406 82.7057 67.9806 82.1705 70.9724 83.0835C70.4798 86.9176 69.1243 90.59 67.0079 93.8248C64.8915 97.0595 62.0692 99.7722 58.7533 101.759C53.2748 104.755 46.9892 105.942 40.7954 105.15C34.6015 104.359 28.8167 101.628 24.2682 97.3502C19.7683 92.2906 17.0475 85.8977 16.5209 79.147C16.5209 78.0765 16.1114 77.0054 15.8911 75.9978C15.8703 74.1712 15.8597 72.3445 15.8594 70.5178ZM21.1819 69.1635H66.7527C66.4689 54.6454 57.3045 44.347 45.0854 44.253C31.4803 44.0638 21.7489 54.1413 21.1502 69.1007L21.1819 69.1635Z" fill="white"/>
</g>
<defs>
<clipPath id="clip0_698_100">
<rect width="145" height="145" fill="white"/>
</clipPath>
</defs>
</svg>
