<svg width="144" height="145" viewBox="0 0 144 145" fill="none" xmlns="http://www.w3.org/2000/svg">
<g clip-path="url(#clip0_698_60)">
<path d="M110.25 0H33.75C15.1104 0 0 15.2153 0 33.9844V111.016C0 129.785 15.1104 145 33.75 145H110.25C128.89 145 144 129.785 144 111.016V33.9844C144 15.2153 128.89 0 110.25 0Z" fill="#2B303F"/>
<path fill-rule="evenodd" clip-rule="evenodd" d="M46.6875 62.3047C50.0625 48.7109 58.5006 41.9141 72 41.9141C92.25 41.9141 94.7812 57.207 104.906 59.7559C111.657 61.4556 117.562 58.9068 122.625 52.1094C119.251 65.7026 110.812 72.5 97.3125 72.5C77.0625 72.5 74.5312 57.207 64.4062 54.6582C57.6557 52.959 51.75 55.5078 46.6875 62.3047ZM21.375 92.8906C24.75 79.2974 33.1875 72.5 46.6875 72.5C66.9375 72.5 69.4688 87.793 79.5938 90.3418C86.3443 92.0416 92.25 89.4928 97.3125 82.6953C93.9381 96.2885 85.4994 103.086 72 103.086C51.75 103.086 49.2188 87.793 39.0938 85.2441C32.3438 83.5444 26.4375 86.0932 21.375 92.8906Z" fill="url(#paint0_linear_698_60)"/>
</g>
<defs>
<linearGradient id="paint0_linear_698_60" x1="48.6562" y1="41.9141" x2="92.3756" y2="104.785" gradientUnits="userSpaceOnUse">
<stop stop-color="#00E2FF"/>
<stop offset="1" stop-color="#00DAC7"/>
</linearGradient>
<clipPath id="clip0_698_60">
<rect width="144" height="145" fill="white"/>
</clipPath>
</defs>
</svg>
