<svg width="145" height="145" viewBox="0 0 145 145" fill="none" xmlns="http://www.w3.org/2000/svg">
<g clip-path="url(#clip0_698_108)">
<path d="M111.016 0H33.9844C15.2153 0 0 15.2153 0 33.9844V111.016C0 129.785 15.2153 145 33.9844 145H111.016C129.785 145 145 129.785 145 111.016V33.9844C145 15.2153 129.785 0 111.016 0Z" fill="#023430"/>
<path d="M96.9535 60.9402C90.9853 34.6131 78.547 27.6044 75.374 22.65C74.0654 20.4675 72.9064 18.1987 71.9047 15.8594C71.7371 18.1986 71.429 19.6713 69.4409 21.4453C65.4494 25.004 48.4969 38.8187 47.0701 68.7323C45.7407 96.6232 67.574 113.821 70.4581 115.599C72.6762 116.69 75.3774 115.622 76.6954 114.62C87.2198 107.397 101.6 88.1407 96.9648 60.9402" fill="#10AA50"/>
<path d="M72.8087 100.748C72.2592 107.651 71.8656 111.663 70.47 115.608C70.47 115.608 71.3858 122.18 72.0293 129.141H74.3057C74.8487 124.239 75.6778 119.372 76.7888 114.567C73.8418 113.117 72.9219 106.806 72.8087 100.748Z" fill="#B8C4C2"/>
<path d="M76.7849 114.569C73.8067 113.193 72.9452 106.749 72.8127 100.747C73.549 90.8441 73.7637 80.9098 73.4561 70.9848C73.2998 65.7772 73.5298 22.7507 72.1732 16.4512C73.1013 18.5847 74.1706 20.6541 75.374 22.6454C78.547 27.6037 90.9892 34.6124 96.9535 60.9396C101.6 88.0936 87.298 107.299 76.7849 114.569Z" fill="#12924F"/>
</g>
<defs>
<clipPath id="clip0_698_108">
<rect width="145" height="145" fill="white"/>
</clipPath>
</defs>
</svg>
