<svg width="168" height="168" viewBox="0 0 168 168" fill="none" xmlns="http://www.w3.org/2000/svg">
<path d="M30.9855 142.805L19.194 10.5H148.806L136.999 142.784L83.9212 157.5L30.9855 142.805Z" fill="#1572B6"/>
<path d="M84 146.255L126.893 134.363L136.983 21.3203H84V146.255Z" fill="#33A9DC"/>
<path d="M84 69.2522H105.473L106.953 52.636H84V36.4082H124.688L124.299 40.7605L120.314 85.48H84V69.2522Z" fill="white"/>
<path d="M84.0997 111.395L84.0262 111.416L65.9557 106.533L64.8007 93.5918H48.51L50.7832 119.07L84.021 128.3L84.0997 128.279V111.395Z" fill="#EBEBEB"/>
<path d="M104.092 84.793L102.139 106.523L84.042 111.405V128.289L117.306 119.07L117.553 116.33L120.372 84.793H104.092Z" fill="white"/>
<path d="M84.0577 36.4082V52.636H44.8612L44.5357 48.9872L43.7955 40.7605L43.407 36.4082H84.0577ZM84 69.2522V85.48H66.1552L65.8297 81.8312L65.0948 73.6045L64.7062 69.2522H84Z" fill="#EBEBEB"/>
</svg>
