<svg width="162" height="162" viewBox="0 0 162 162" fill="none" xmlns="http://www.w3.org/2000/svg">
<circle cx="81" cy="81" r="81" fill="#1E1E1E"/>
<path d="M45.9136 115.271C46.2479 114.491 47.1393 112.485 48.5879 109.254C50.0364 106.078 51.9586 101.899 54.3543 96.7179C56.75 91.4807 59.48 85.4636 62.5443 78.6664C65.6086 71.8693 68.9236 64.515 72.4893 56.6036C72.7121 56.1579 72.9071 55.6564 73.0743 55.0993C73.2414 54.4864 73.325 53.9014 73.325 53.3443C73.325 52.7871 73.13 52.3136 72.74 51.9236C72.4057 51.5336 71.7093 51.3386 70.6507 51.3386C68.3107 51.3386 66.3607 52.1186 64.8007 53.6786C63.2964 55.1829 62.1821 57.0493 61.4579 59.2779C60.7336 61.5064 60.3714 63.735 60.3714 65.9636C60.3714 66.465 60.3714 66.9664 60.3714 67.4679C60.4271 67.9693 60.5107 68.4707 60.6221 68.9721C59.4521 68.9721 58.505 68.61 57.7807 67.8857C57.0564 67.1057 56.5271 66.1586 56.1929 65.0443C55.8586 63.8743 55.6914 62.8157 55.6914 61.8686C55.6914 60.0857 56.1929 58.3586 57.1957 56.6871C58.1986 55.0157 59.5079 53.5114 61.1236 52.1743C62.7393 50.7814 64.5221 49.7229 66.4721 48.9986C68.4221 48.2186 70.3443 47.8286 72.2386 47.8286C74.1886 47.8286 75.8043 48.3579 77.0857 49.4164C78.4229 50.475 79.4257 52.3971 80.0943 55.1829C80.8186 57.9686 81.1807 61.98 81.1807 67.2171C81.1807 70.7271 81.0414 74.4043 80.7629 78.2486C80.54 82.0929 80.2893 85.8257 80.0107 89.4471C79.7321 93.0129 79.5371 96.2164 79.4257 99.0579C80.4286 95.715 81.7379 92.1493 83.3536 88.3607C85.025 84.5164 86.8357 80.7279 88.7857 76.995C90.7357 73.2064 92.6579 69.6686 94.5521 66.3814C96.4464 63.0943 98.1457 60.225 99.65 57.7736C101.21 55.3221 102.38 53.5393 103.16 52.425C103.94 51.255 104.609 50.3914 105.166 49.8343C105.723 49.2214 106.475 48.915 107.422 48.915C108.202 48.915 109.205 49.1379 110.431 49.5836C110.041 50.5864 109.484 52.1464 108.759 54.2636C108.091 56.325 107.394 58.8321 106.67 61.785C105.779 65.1279 104.887 68.9164 103.996 73.1507C103.16 77.3293 102.352 81.5914 101.572 85.9371C100.848 90.2829 100.263 94.3779 99.8171 98.2221C99.4271 102.011 99.2321 105.27 99.2321 108C99.2321 109.281 99.2879 110.284 99.3993 111.009C99.5107 111.733 99.6779 112.374 99.9007 112.931C100.124 113.544 100.346 114.324 100.569 115.271C98.5636 115.271 97.0036 114.936 95.8893 114.268C94.8307 113.655 94.1064 112.624 93.7164 111.176C93.3821 109.727 93.215 107.805 93.215 105.409C93.215 98.9464 93.995 92.0379 95.555 84.6836C97.1707 77.3293 99.0371 69.7243 101.154 61.8686C99.5386 63.9857 97.8671 66.6043 96.14 69.7243C94.4129 72.8443 92.6857 76.1871 90.9586 79.7529C89.2871 83.3186 87.6714 86.8843 86.1114 90.45C84.5514 93.96 83.1864 97.2193 82.0164 100.228C80.8464 103.236 79.9271 105.744 79.2586 107.749C78.8686 107.861 78.59 107.944 78.4229 108C78.3114 108.056 78.1164 108.084 77.8379 108.084C76.1664 108.084 75.08 107.109 74.5786 105.159C74.1329 103.153 73.91 100.395 73.91 96.885C73.91 94.6564 73.9657 92.0936 74.0771 89.1964C74.1886 86.2436 74.3 83.235 74.4114 80.1707C74.5786 77.0507 74.7179 74.0421 74.8293 71.145C74.9407 68.1921 74.9964 65.5736 74.9964 63.2893C74.9964 62.2864 74.9686 61.4229 74.9129 60.6986C74.9129 59.9186 74.885 59.1943 74.8293 58.5257C70.4836 68.7214 66.8064 77.4407 63.7979 84.6836C60.845 91.8707 58.3379 97.7207 56.2764 102.234C54.215 106.746 52.3764 110.034 50.7607 112.095C49.145 114.212 47.5293 115.271 45.9136 115.271Z" fill="#54FF6F"/>
</svg>
